<?xml version="1.0" standalone="no"?>
<!DOCTYPE svg PUBLIC "-//W3C//DTD SVG 20010904//EN"
 "http://www.w3.org/TR/2001/REC-SVG-20010904/DTD/svg10.dtd">
<svg version="1.0" xmlns="http://www.w3.org/2000/svg"
 width="197.000000pt" height="188.000000pt" viewBox="0 0 197.000000 188.000000"
 preserveAspectRatio="xMidYMid meet">

<g transform="translate(0.000000,188.000000) scale(0.100000,-0.100000)"
fill="#000000" stroke="none">
<path d="M785 1826 c-241 -56 -438 -174 -574 -344 -97 -121 -190 -353 -191
-474 0 -27 2 -28 50 -28 49 0 49 0 55 38 26 153 104 332 190 432 98 116 275
225 430 266 98 26 331 26 430 0 93 -24 197 -70 265 -116 86 -58 90 -66 33 -75
-69 -10 -271 -85 -338 -126 -31 -18 -83 -57 -114 -86 l-58 -52 -29 30 c-38 41
-136 110 -202 143 -86 43 -225 86 -281 86 -47 0 -52 -2 -62 -27 -6 -16 -9 -56
-7 -90 l4 -61 -38 -6 -38 -6 0 -80 c0 -79 0 -80 -25 -80 -50 0 -52 -26 -17
-307 19 -155 37 -265 46 -278 11 -16 70 -40 237 -96 l223 -74 56 -56 c31 -31
68 -59 83 -63 16 -4 56 -20 89 -36 66 -32 97 -36 147 -19 30 11 31 12 14 26
-17 14 -17 14 2 8 24 -8 24 -8 50 -6 16 1 17 3 5 11 -8 5 -17 6 -20 2 -3 -4
-19 0 -36 8 l-31 16 26 19 c21 16 24 16 12 2 -8 -10 -11 -21 -7 -24 4 -4 11
-2 15 6 5 7 19 11 32 9 19 -2 24 1 23 19 0 13 4 23 9 23 6 0 0 9 -13 20 -12
11 -26 18 -30 15 -3 -2 -7 2 -7 10 0 16 24 28 39 19 6 -4 6 -9 -2 -14 -9 -6
-6 -10 9 -15 13 -4 25 -4 28 -1 4 3 -2 6 -12 6 -18 0 -18 1 1 14 10 8 16 18
11 22 -4 4 -7 2 -7 -4 0 -7 -4 -12 -10 -12 -24 0 -7 18 30 33 22 8 38 12 36 9
-2 -4 7 -8 21 -9 17 -1 21 2 13 7 -9 6 -7 11 9 19 23 13 150 55 166 56 6 0 13
4 16 8 3 4 16 9 27 10 12 1 22 5 22 10 0 4 4 6 9 3 5 -3 12 1 15 10 4 11 12
14 24 9 29 -12 47 -13 53 -3 9 14 18 -28 9 -42 -6 -10 -12 -10 -26 0 -16 10
-16 11 -1 6 17 -5 23 5 11 17 -10 9 -46 -12 -39 -23 3 -6 -1 -7 -10 -4 -14 6
-14 8 2 20 22 17 12 18 -22 2 -14 -6 -25 -15 -25 -20 0 -5 -4 -6 -10 -3 -15 9
-12 -4 5 -21 8 -8 21 -25 30 -36 8 -12 18 -18 22 -14 4 4 -3 15 -16 25 -15 12
-21 23 -16 31 6 9 4 11 -5 5 -9 -5 -11 -4 -6 3 5 9 13 9 27 2 24 -13 25 -22 2
-13 -14 5 -13 0 6 -20 15 -16 20 -30 15 -39 -5 -7 -9 -16 -9 -20 0 -15 -95
-116 -146 -155 -66 -51 -189 -113 -284 -143 -96 -30 -288 -38 -402 -17 -165
32 -356 137 -470 261 -79 86 -162 247 -196 381 l-24 90 -42 3 c-52 4 -57 -7
-41 -96 35 -187 160 -402 306 -523 190 -158 389 -231 629 -231 164 1 299 33
448 108 204 104 381 309 459 534 22 65 50 191 44 198 -3 2 -25 7 -48 9 -54 6
-58 1 -86 -102 -22 -84 -70 -202 -71 -173 -1 17 -41 22 -41 6 0 -5 -9 -4 -20
2 -18 10 -19 13 -6 38 8 15 12 40 9 55 -3 17 -1 27 6 27 7 0 9 5 6 11 -9 13 5
170 14 165 3 -2 8 59 10 136 l3 139 -28 11 c-28 10 -29 13 -29 80 0 76 -10 91
-57 85 l-28 -4 0 89 c0 48 4 88 8 88 14 0 69 -63 116 -134 53 -81 100 -195
121 -299 24 -110 22 -107 65 -107 53 0 63 20 49 97 -23 134 -63 226 -156 368
-123 185 -302 308 -549 376 -101 27 -329 36 -419 15z m685 -450 l0 -54 -37 -7
c-112 -21 -262 -100 -378 -199 -103 -89 -90 -85 -143 -34 -103 100 -217 167
-367 218 l-80 27 -3 46 c-4 61 3 61 157 -2 155 -63 209 -98 271 -177 30 -39
58 -64 69 -64 11 0 47 30 83 68 107 116 160 145 426 231 1 1 2 -23 2 -53z
m-965 -160 c133 -45 255 -107 310 -157 39 -36 105 -125 105 -142 0 -16 -96 26
-143 61 -85 65 -212 121 -362 161 l-40 10 3 51 c2 27 9 50 14 50 6 0 57 -15
113 -34z m1065 -14 l0 -47 -104 -33 c-118 -38 -224 -86 -311 -142 -68 -44
-135 -75 -135 -62 0 49 106 162 201 214 94 51 261 109 342 117 4 1 7 -20 7
-47z m-110 -306 c0 -24 3 -52 7 -62 5 -15 2 -16 -23 -11 -17 3 -40 0 -54 -8
-37 -21 -38 -20 -42 35 l-3 51 43 11 c23 6 45 14 48 19 13 22 24 5 24 -35z
m-586 -65 c3 -5 27 -14 53 -20 38 -9 58 -9 95 2 46 14 47 14 52 -9 9 -34 -10
-73 -41 -85 -39 -15 -140 -5 -164 17 -13 12 -19 30 -19 61 0 40 11 55 24 34z
m108 -226 l68 0 -2 -88 -2 -87 -41 -11 c-31 -9 -49 -8 -80 2 l-40 14 -3 94
c-3 87 -2 93 15 85 10 -5 48 -9 85 -9z m702 -97 c-3 -5 -10 -5 -16 -2 -8 5 -9
1 -4 -12 5 -14 4 -16 -5 -7 -14 14 -6 30 15 30 8 0 13 -4 10 -9z m-508 -110
c4 -7 4 -10 -1 -6 -4 4 -15 2 -24 -5 -14 -11 -14 -10 -2 6 16 20 18 21 27 5z
m-23 -53 c-3 -9 -8 -14 -10 -11 -3 3 -2 9 2 15 9 16 15 13 8 -4z"/>
<path d="M1754 902 c-1 -15 1 -21 3 -14 3 6 11 12 19 12 8 0 14 5 14 11 0 5
-4 7 -10 4 -5 -3 -10 -1 -10 4 0 25 -15 9 -16 -17z"/>
<path d="M1656 613 c-6 -14 -5 -15 5 -6 7 7 10 15 7 18 -3 3 -9 -2 -12 -12z"/>
<path d="M1490 490 c-9 -6 -10 -10 -3 -10 6 0 15 5 18 10 8 12 4 12 -15 0z"/>
<path d="M1380 480 c-9 -6 -10 -10 -3 -10 6 0 15 5 18 10 8 12 4 12 -15 0z"/>
<path d="M1590 472 c0 -5 10 -17 21 -28 22 -19 22 -19 10 3 -12 24 -31 39 -31
25z"/>
<path d="M1488 383 c7 -3 16 -2 19 1 4 3 -2 6 -13 5 -11 0 -14 -3 -6 -6z"/>
<path d="M1430 370 c-18 -12 -2 -12 25 0 13 6 15 9 5 9 -8 0 -22 -4 -30 -9z"/>
<path d="M1368 344 c-39 -21 -35 -28 5 -8 37 19 44 24 31 24 -5 -1 -21 -8 -36
-16z"/>
<path d="M1270 336 c0 -2 7 -7 16 -10 8 -3 12 -2 9 4 -6 10 -25 14 -25 6z"/>
<path d="M1273 305 c0 -7 6 -11 14 -8 7 3 13 6 13 8 0 2 -6 5 -13 8 -8 3 -14
-1 -14 -8z"/>
</g>
</svg>
